{
  "cells": [
    {
      "cell_type": "markdown",
      "id": "7909358a",
      "metadata": {},
      "source": [
        "# Root-centered mocap test\n",
        "\n",
        "Production pipeline: `utils_mocap_viz/worldpos_transform1.py` — horizontal root center (X/Z), Y fixed (ground at 0).  \n",
        "`MocapVisualizerBase` loads `extracted_mocap_csv/{base}_worldpos_root_centered.csv`."
      ]
    },
    {
      "cell_type": "code",
      "execution_count": 1,
      "id": "df9c6cba",
      "metadata": {},
      "outputs": [
        {
          "name": "stdout",
          "output_type": "stream",
          "text": [
            "Loaded 80027 frames from bvh_to_csv/BKO_E1_D1_03_Wasulunka_T_worldpos.csv\n",
            "Root-centered CSV -> bvh_to_csv_centered/BKO_E1_D1_03_Wasulunka_T_worldpos_root_centered.csv\n",
            "\n",
            "Generating front view -> testing_output/BKO_E1_D1_03_Wasulunka_T/front_view/front_view_315.0_325.0.mp4\n",
            "Building root-centered worldpos (XZ hips, Y fixed): bvh_to_csv_centered/BKO_E1_D1_03_Wasulunka_T_worldpos_root_centered.csv\n"
          ]
        },
        {
          "name": "stderr",
          "output_type": "stream",
          "text": [
            "\u001b[0m\u001b[33m2026-05-31 21:41:29.931 (  32.855s) [    7F3D5CCEB440]vtkXOpenGLRenderWindow.:1458  WARN| bad X server connection. DISPLAY=\u001b[0m\n",
            "Exception ignored in: <function BasePlotter.__del__ at 0x7f3bfe12f420>\n",
            "Traceback (most recent call last):\n",
            "  File \"/itf-fi-ml/home/sagardu/miniconda3/lib/python3.12/site-packages/pyvista/plotting/plotter.py\", line 6585, in __del__\n",
            "    if self._initialized and not self._closed:\n",
            "       ^^^^^^^^^^^^^^^^^\n",
            "AttributeError: 'Plotter' object has no attribute '_initialized'\n",
            "Exception ignored in: <function BasePlotter.__del__ at 0x7f3bfe12f420>\n",
            "Traceback (most recent call last):\n",
            "  File \"/itf-fi-ml/home/sagardu/miniconda3/lib/python3.12/site-packages/pyvista/plotting/plotter.py\", line 6585, in __del__\n",
            "    if self._initialized and not self._closed:\n",
            "       ^^^^^^^^^^^^^^^^^\n",
            "AttributeError: 'Plotter' object has no attribute '_initialized'\n"
          ]
        },
        {
          "name": "stdout",
          "output_type": "stream",
          "text": [
            "Frame 75600 valid markers: 28/28\n",
            "Frame 75600 valid markers: 28/28\n",
            "Frame 75610 valid markers: 28/28\n",
            "Frame 75620 valid markers: 28/28\n",
            "Frame 75630 valid markers: 28/28\n",
            "Frame 75640 valid markers: 28/28\n",
            "Frame 75650 valid markers: 28/28\n",
            "Frame 75660 valid markers: 28/28\n",
            "Frame 75670 valid markers: 28/28\n",
            "Frame 75680 valid markers: 28/28\n",
            "Frame 75690 valid markers: 28/28\n",
            "Frame 75700 valid markers: 28/28\n",
            "Frame 75710 valid markers: 28/28\n",
            "Frame 75720 valid markers: 28/28\n",
            "Frame 75730 valid markers: 28/28\n",
            "Frame 75740 valid markers: 28/28\n",
            "Frame 75750 valid markers: 28/28\n",
            "Frame 75760 valid markers: 28/28\n",
            "Frame 75770 valid markers: 28/28\n",
            "Frame 75780 valid markers: 28/28\n",
            "Frame 75790 valid markers: 28/28\n",
            "Frame 75800 valid markers: 28/28\n",
            "Frame 75810 valid markers: 28/28\n",
            "Frame 75820 valid markers: 28/28\n",
            "Frame 75830 valid markers: 28/28\n",
            "Frame 75840 valid markers: 28/28\n",
            "Frame 75850 valid markers: 28/28\n",
            "Frame 75860 valid markers: 28/28\n",
            "Frame 75870 valid markers: 28/28\n",
            "Frame 75880 valid markers: 28/28\n",
            "Frame 75890 valid markers: 28/28\n",
            "Frame 75900 valid markers: 28/28\n",
            "Frame 75910 valid markers: 28/28\n",
            "Frame 75920 valid markers: 28/28\n",
            "Frame 75930 valid markers: 28/28\n",
            "Frame 75940 valid markers: 28/28\n",
            "Frame 75950 valid markers: 28/28\n",
            "Frame 75960 valid markers: 28/28\n",
            "Frame 75970 valid markers: 28/28\n",
            "Frame 75980 valid markers: 28/28\n",
            "Frame 75990 valid markers: 28/28\n",
            "Frame 76000 valid markers: 28/28\n",
            "Frame 76010 valid markers: 28/28\n",
            "Frame 76020 valid markers: 28/28\n",
            "Frame 76030 valid markers: 28/28\n",
            "Frame 76040 valid markers: 28/28\n",
            "Frame 76050 valid markers: 28/28\n",
            "Frame 76060 valid markers: 28/28\n",
            "Frame 76070 valid markers: 28/28\n",
            "Frame 76080 valid markers: 28/28\n",
            "Frame 76090 valid markers: 28/28\n",
            "Frame 76100 valid markers: 28/28\n",
            "Frame 76110 valid markers: 28/28\n",
            "Frame 76120 valid markers: 28/28\n",
            "Frame 76130 valid markers: 28/28\n",
            "Frame 76140 valid markers: 28/28\n",
            "Frame 76150 valid markers: 28/28\n",
            "Frame 76160 valid markers: 28/28\n",
            "Frame 76170 valid markers: 28/28\n",
            "Frame 76180 valid markers: 28/28\n",
            "Frame 76190 valid markers: 28/28\n",
            "Frame 76200 valid markers: 28/28\n",
            "Frame 76210 valid markers: 28/28\n",
            "Frame 76220 valid markers: 28/28\n",
            "Frame 76230 valid markers: 28/28\n",
            "Frame 76240 valid markers: 28/28\n",
            "Frame 76250 valid markers: 28/28\n",
            "Frame 76260 valid markers: 28/28\n",
            "Frame 76270 valid markers: 28/28\n",
            "Frame 76280 valid markers: 28/28\n",
            "Frame 76290 valid markers: 28/28\n",
            "Frame 76300 valid markers: 28/28\n",
            "Frame 76310 valid markers: 28/28\n",
            "Frame 76320 valid markers: 28/28\n",
            "Frame 76330 valid markers: 28/28\n",
            "Frame 76340 valid markers: 28/28\n",
            "Frame 76350 valid markers: 28/28\n",
            "Frame 76360 valid markers: 28/28\n",
            "Frame 76370 valid markers: 28/28\n",
            "Frame 76380 valid markers: 28/28\n",
            "Frame 76390 valid markers: 28/28\n",
            "Frame 76400 valid markers: 28/28\n",
            "Frame 76410 valid markers: 28/28\n",
            "Frame 76420 valid markers: 28/28\n",
            "Frame 76430 valid markers: 28/28\n",
            "Frame 76440 valid markers: 28/28\n",
            "Frame 76450 valid markers: 28/28\n",
            "Frame 76460 valid markers: 28/28\n",
            "Frame 76470 valid markers: 28/28\n",
            "Frame 76480 valid markers: 28/28\n",
            "Frame 76490 valid markers: 28/28\n",
            "Frame 76500 valid markers: 28/28\n",
            "Frame 76510 valid markers: 28/28\n",
            "Frame 76520 valid markers: 28/28\n",
            "Frame 76530 valid markers: 28/28\n",
            "Frame 76540 valid markers: 28/28\n",
            "Frame 76550 valid markers: 28/28\n",
            "Frame 76560 valid markers: 28/28\n",
            "Frame 76570 valid markers: 28/28\n",
            "Frame 76580 valid markers: 28/28\n",
            "Frame 76590 valid markers: 28/28\n",
            "Frame 76600 valid markers: 28/28\n",
            "Frame 76610 valid markers: 28/28\n",
            "Frame 76620 valid markers: 28/28\n",
            "Frame 76630 valid markers: 28/28\n",
            "Frame 76640 valid markers: 28/28\n",
            "Frame 76650 valid markers: 28/28\n",
            "Frame 76660 valid markers: 28/28\n",
            "Frame 76670 valid markers: 28/28\n",
            "Frame 76680 valid markers: 28/28\n",
            "Frame 76690 valid markers: 28/28\n",
            "Frame 76700 valid markers: 28/28\n",
            "Frame 76710 valid markers: 28/28\n",
            "Frame 76720 valid markers: 28/28\n",
            "Frame 76730 valid markers: 28/28\n",
            "Frame 76740 valid markers: 28/28\n",
            "Frame 76750 valid markers: 28/28\n",
            "Frame 76760 valid markers: 28/28\n",
            "Frame 76770 valid markers: 28/28\n",
            "Frame 76780 valid markers: 28/28\n",
            "Frame 76790 valid markers: 28/28\n",
            "Frame 76800 valid markers: 28/28\n",
            "Frame 76810 valid markers: 28/28\n",
            "Frame 76820 valid markers: 28/28\n",
            "Frame 76830 valid markers: 28/28\n",
            "Frame 76840 valid markers: 28/28\n",
            "Frame 76850 valid markers: 28/28\n",
            "Frame 76860 valid markers: 28/28\n",
            "Frame 76870 valid markers: 28/28\n",
            "Frame 76880 valid markers: 28/28\n",
            "Frame 76890 valid markers: 28/28\n",
            "Frame 76900 valid markers: 28/28\n",
            "Frame 76910 valid markers: 28/28\n",
            "Frame 76920 valid markers: 28/28\n",
            "Frame 76930 valid markers: 28/28\n",
            "Frame 76940 valid markers: 28/28\n",
            "Frame 76950 valid markers: 28/28\n",
            "Frame 76960 valid markers: 28/28\n",
            "Frame 76970 valid markers: 28/28\n",
            "Frame 76980 valid markers: 28/28\n",
            "Frame 76990 valid markers: 28/28\n",
            "Frame 77000 valid markers: 28/28\n",
            "Frame 77010 valid markers: 28/28\n",
            "Frame 77020 valid markers: 28/28\n",
            "Frame 77030 valid markers: 28/28\n",
            "Frame 77040 valid markers: 28/28\n",
            "Frame 77050 valid markers: 28/28\n",
            "Frame 77060 valid markers: 28/28\n",
            "Frame 77070 valid markers: 28/28\n",
            "Frame 77080 valid markers: 28/28\n",
            "Frame 77090 valid markers: 28/28\n",
            "Frame 77100 valid markers: 28/28\n",
            "Frame 77110 valid markers: 28/28\n",
            "Frame 77120 valid markers: 28/28\n",
            "Frame 77130 valid markers: 28/28\n",
            "Frame 77140 valid markers: 28/28\n",
            "Frame 77150 valid markers: 28/28\n",
            "Frame 77160 valid markers: 28/28\n",
            "Frame 77170 valid markers: 28/28\n",
            "Frame 77180 valid markers: 28/28\n",
            "Frame 77190 valid markers: 28/28\n",
            "Frame 77200 valid markers: 28/28\n",
            "Frame 77210 valid markers: 28/28\n",
            "Frame 77220 valid markers: 28/28\n",
            "Frame 77230 valid markers: 28/28\n",
            "Frame 77240 valid markers: 28/28\n",
            "Frame 77250 valid markers: 28/28\n",
            "Frame 77260 valid markers: 28/28\n",
            "Frame 77270 valid markers: 28/28\n",
            "Frame 77280 valid markers: 28/28\n",
            "Frame 77290 valid markers: 28/28\n",
            "Frame 77300 valid markers: 28/28\n",
            "Frame 77310 valid markers: 28/28\n",
            "Frame 77320 valid markers: 28/28\n",
            "Frame 77330 valid markers: 28/28\n",
            "Frame 77340 valid markers: 28/28\n",
            "Frame 77350 valid markers: 28/28\n",
            "Frame 77360 valid markers: 28/28\n",
            "Frame 77370 valid markers: 28/28\n",
            "Frame 77380 valid markers: 28/28\n",
            "Frame 77390 valid markers: 28/28\n",
            "Frame 77400 valid markers: 28/28\n",
            "Frame 77410 valid markers: 28/28\n",
            "Frame 77420 valid markers: 28/28\n",
            "Frame 77430 valid markers: 28/28\n",
            "Frame 77440 valid markers: 28/28\n",
            "Frame 77450 valid markers: 28/28\n",
            "Frame 77460 valid markers: 28/28\n",
            "Frame 77470 valid markers: 28/28\n",
            "Frame 77480 valid markers: 28/28\n",
            "Frame 77490 valid markers: 28/28\n",
            "Frame 77500 valid markers: 28/28\n",
            "Frame 77510 valid markers: 28/28\n",
            "Frame 77520 valid markers: 28/28\n",
            "Frame 77530 valid markers: 28/28\n",
            "Frame 77540 valid markers: 28/28\n",
            "Frame 77550 valid markers: 28/28\n",
            "Frame 77560 valid markers: 28/28\n",
            "Frame 77570 valid markers: 28/28\n",
            "Frame 77580 valid markers: 28/28\n",
            "Frame 77590 valid markers: 28/28\n",
            "Frame 77600 valid markers: 28/28\n",
            "Frame 77610 valid markers: 28/28\n",
            "Frame 77620 valid markers: 28/28\n",
            "Frame 77630 valid markers: 28/28\n",
            "Frame 77640 valid markers: 28/28\n",
            "Frame 77650 valid markers: 28/28\n",
            "Frame 77660 valid markers: 28/28\n",
            "Frame 77670 valid markers: 28/28\n",
            "Frame 77680 valid markers: 28/28\n",
            "Frame 77690 valid markers: 28/28\n",
            "Frame 77700 valid markers: 28/28\n",
            "Frame 77710 valid markers: 28/28\n",
            "Frame 77720 valid markers: 28/28\n",
            "Frame 77730 valid markers: 28/28\n",
            "Frame 77740 valid markers: 28/28\n",
            "Frame 77750 valid markers: 28/28\n",
            "Frame 77760 valid markers: 28/28\n",
            "Frame 77770 valid markers: 28/28\n",
            "Frame 77780 valid markers: 28/28\n",
            "Frame 77790 valid markers: 28/28\n",
            "Frame 77800 valid markers: 28/28\n",
            "Frame 77810 valid markers: 28/28\n",
            "Frame 77820 valid markers: 28/28\n",
            "Frame 77830 valid markers: 28/28\n",
            "Frame 77840 valid markers: 28/28\n",
            "Frame 77850 valid markers: 28/28\n",
            "Frame 77860 valid markers: 28/28\n",
            "Frame 77870 valid markers: 28/28\n",
            "Frame 77880 valid markers: 28/28\n",
            "Frame 77890 valid markers: 28/28\n",
            "Frame 77900 valid markers: 28/28\n",
            "Frame 77910 valid markers: 28/28\n",
            "Frame 77920 valid markers: 28/28\n",
            "Frame 77930 valid markers: 28/28\n",
            "Frame 77940 valid markers: 28/28\n",
            "Frame 77950 valid markers: 28/28\n",
            "Frame 77960 valid markers: 28/28\n",
            "Frame 77970 valid markers: 28/28\n",
            "Frame 77980 valid markers: 28/28\n",
            "Frame 77990 valid markers: 28/28\n",
            "Saved frame 240/240\n",
            "Converting frames to video...\n"
          ]
        },
        {
          "name": "stderr",
          "output_type": "stream",
          "text": [
            "ffmpeg version N-121749-g203c6a93d7 Copyright (c) 2000-2025 the FFmpeg developers\n",
            "  built with gcc 8 (GCC)\n",
            "  configuration: --prefix=/itf-fi-ml/home/sagardu/ffmpeg_build --pkg-config-flags=--static --extra-cflags=-I/itf-fi-ml/home/sagardu/ffmpeg_build/include --extra-ldflags=-L/itf-fi-ml/home/sagardu/ffmpeg_build/lib --extra-libs='-lpthread -lm' --bindir=/itf-fi-ml/home/sagardu/bin --enable-gpl --enable-libx264 --enable-shared\n",
            "  libavutil      60. 17.100 / 60. 17.100\n",
            "  libavcodec     62. 19.100 / 62. 19.100\n",
            "  libavformat    62.  6.101 / 62.  6.101\n",
            "  libavdevice    62.  2.100 / 62.  2.100\n",
            "  libavfilter    11.  9.100 / 11.  9.100\n",
            "  libswscale      9.  3.100 /  9.  3.100\n",
            "  libswresample   6.  2.100 /  6.  2.100\n",
            "Input #0, image2, from 'temp_frames_1780256490021098224/frame_%06d.png':\n",
            "  Duration: 00:00:10.00, start: 0.000000, bitrate: N/A\n",
            "  Stream #0:0: Video: png, rgb24(pc, gbr/unknown/unknown), 1280x720, 24 fps, 24 tbr, 24 tbn\n",
            "Stream mapping:\n",
            "  Stream #0:0 -> #0:0 (png (native) -> h264 (libx264))\n",
            "Press [q] to stop, [?] for help\n",
            "[libx264 @ 0x1548b00] using cpu capabilities: MMX2 SSE2Fast SSSE3 SSE4.2 AVX FMA3 BMI2 AVX2 AVX512\n",
            "[libx264 @ 0x1548b00] profile High, level 3.1, 4:2:0, 8-bit\n",
            "[libx264 @ 0x1548b00] 264 - core 165 - H.264/MPEG-4 AVC codec - Copyleft 2003-2025 - http://www.videolan.org/x264.html - options: cabac=1 ref=3 deblock=1:0:0 analyse=0x3:0x113 me=hex subme=7 psy=1 psy_rd=1.00:0.00 mixed_ref=1 me_range=16 chroma_me=1 trellis=1 8x8dct=1 cqm=0 deadzone=21,11 fast_pskip=1 chroma_qp_offset=-2 threads=22 lookahead_threads=3 sliced_threads=0 nr=0 decimate=1 interlaced=0 bluray_compat=0 constrained_intra=0 bframes=3 b_pyramid=2 b_adapt=1 b_bias=0 direct=1 weightb=1 open_gop=0 weightp=2 keyint=250 keyint_min=24 scenecut=40 intra_refresh=0 rc_lookahead=40 rc=crf mbtree=1 crf=23.0 qcomp=0.60 qpmin=0 qpmax=69 qpstep=4 ip_ratio=1.40 aq=1:1.00\n",
            "Output #0, mp4, to 'testing_output/BKO_E1_D1_03_Wasulunka_T/front_view/front_view_315.0_325.0.mp4':\n",
            "  Metadata:\n",
            "    encoder         : Lavf62.6.101\n",
            "  Stream #0:0: Video: h264 (avc1 / 0x31637661), yuv420p(tv, progressive), 1280x720, q=2-31, 24 fps, 12288 tbn\n",
            "    Metadata:\n",
            "      encoder         : Lavc62.19.100 libx264\n",
            "    Side data:\n",
            "      CPB properties: bitrate max/min/avg: 0/0/0 buffer size: 0 vbv_delay: N/A\n",
            "[out#0/mp4 @ 0x1543a00] video:473KiB audio:0KiB subtitle:0KiB other streams:0KiB global headers:0KiB muxing overhead: 0.625391%\n",
            "frame=  240 fps=0.0 q=-1.0 Lsize=     476KiB time=00:00:09.91 bitrate= 392.9kbits/s speed=10.4x elapsed=0:00:00.95    \n",
            "[libx264 @ 0x1548b00] frame I:1     Avg QP:25.61  size:  4897\n",
            "[libx264 @ 0x1548b00] frame P:165   Avg QP:29.35  size:  2219\n",
            "[libx264 @ 0x1548b00] frame B:74    Avg QP:34.01  size:  1517\n",
            "[libx264 @ 0x1548b00] consecutive B-frames: 47.9% 29.2% 11.2% 11.7%\n",
            "[libx264 @ 0x1548b00] mb I  I16..4:  0.4% 95.7%  3.9%\n",
            "[libx264 @ 0x1548b00] mb P  I16..4:  0.1%  1.5%  1.0%  P16..4:  1.3%  0.9%  0.6%  0.0%  0.0%    skip:94.5%\n",
            "[libx264 @ 0x1548b00] mb B  I16..4:  0.0%  0.2%  0.4%  B16..8:  2.9%  1.4%  0.5%  direct: 0.1%  skip:94.5%  L0:51.4% L1:39.7% BI: 8.9%\n",
            "[libx264 @ 0x1548b00] 8x8 transform intra:60.7% inter:15.7%\n",
            "[libx264 @ 0x1548b00] coded y,uvDC,uvAC intra: 20.7% 5.3% 5.2% inter: 0.9% 0.1% 0.1%\n",
            "[libx264 @ 0x1548b00] i16 v,h,dc,p: 71% 20%  9%  0%\n",
            "[libx264 @ 0x1548b00] i8 v,h,dc,ddl,ddr,vr,hd,vl,hu: 39%  7% 52%  0%  0%  0%  0%  0%  0%\n",
            "[libx264 @ 0x1548b00] i4 v,h,dc,ddl,ddr,vr,hd,vl,hu: 30% 17% 31%  3%  3%  5%  3%  5%  2%\n",
            "[libx264 @ 0x1548b00] i8c dc,h,v,p: 96%  1%  3%  0%\n",
            "[libx264 @ 0x1548b00] Weighted P-Frames: Y:0.0% UV:0.0%\n",
            "[libx264 @ 0x1548b00] ref P L0: 69.6%  4.5% 16.1%  9.7%\n",
            "[libx264 @ 0x1548b00] ref B L0: 79.6% 17.3%  3.2%\n",
            "[libx264 @ 0x1548b00] ref B L1: 97.9%  2.1%\n",
            "[libx264 @ 0x1548b00] kb/s:386.67\n"
          ]
        },
        {
          "name": "stdout",
          "output_type": "stream",
          "text": [
            "Video generation complete! Saved to testing_output/BKO_E1_D1_03_Wasulunka_T/front_view/front_view_315.0_325.0.mp4\n",
            "\n",
            "Generating left view -> testing_output/BKO_E1_D1_03_Wasulunka_T/left_view/left_view_315.0_325.0.mp4\n",
            "Building root-centered worldpos (XZ hips, Y fixed): bvh_to_csv_centered/BKO_E1_D1_03_Wasulunka_T_worldpos_root_centered.csv\n"
          ]
        },
        {
          "name": "stderr",
          "output_type": "stream",
          "text": [
            "Exception ignored in: <function BasePlotter.__del__ at 0x7f3bfe12f420>\n",
            "Traceback (most recent call last):\n",
            "  File \"/itf-fi-ml/home/sagardu/miniconda3/lib/python3.12/site-packages/pyvista/plotting/plotter.py\", line 6585, in __del__\n",
            "    if self._initialized and not self._closed:\n",
            "       ^^^^^^^^^^^^^^^^^\n",
            "AttributeError: 'Plotter' object has no attribute '_initialized'\n",
            "Exception ignored in: <function BasePlotter.__del__ at 0x7f3bfe12f420>\n",
            "Traceback (most recent call last):\n",
            "  File \"/itf-fi-ml/home/sagardu/miniconda3/lib/python3.12/site-packages/pyvista/plotting/plotter.py\", line 6585, in __del__\n",
            "    if self._initialized and not self._closed:\n",
            "       ^^^^^^^^^^^^^^^^^\n",
            "AttributeError: 'Plotter' object has no attribute '_initialized'\n"
          ]
        },
        {
          "name": "stdout",
          "output_type": "stream",
          "text": [
            "Frame 75600 valid markers: 28/28\n",
            "Frame 75600 valid markers: 28/28\n",
            "Frame 75610 valid markers: 28/28\n",
            "Frame 75620 valid markers: 28/28\n",
            "Frame 75630 valid markers: 28/28\n",
            "Frame 75640 valid markers: 28/28\n",
            "Frame 75650 valid markers: 28/28\n",
            "Frame 75660 valid markers: 28/28\n",
            "Frame 75670 valid markers: 28/28\n",
            "Frame 75680 valid markers: 28/28\n",
            "Frame 75690 valid markers: 28/28\n",
            "Frame 75700 valid markers: 28/28\n",
            "Frame 75710 valid markers: 28/28\n",
            "Frame 75720 valid markers: 28/28\n",
            "Frame 75730 valid markers: 28/28\n",
            "Frame 75740 valid markers: 28/28\n",
            "Frame 75750 valid markers: 28/28\n",
            "Frame 75760 valid markers: 28/28\n",
            "Frame 75770 valid markers: 28/28\n",
            "Frame 75780 valid markers: 28/28\n",
            "Frame 75790 valid markers: 28/28\n",
            "Frame 75800 valid markers: 28/28\n",
            "Frame 75810 valid markers: 28/28\n",
            "Frame 75820 valid markers: 28/28\n",
            "Frame 75830 valid markers: 28/28\n",
            "Frame 75840 valid markers: 28/28\n",
            "Frame 75850 valid markers: 28/28\n",
            "Frame 75860 valid markers: 28/28\n",
            "Frame 75870 valid markers: 28/28\n",
            "Frame 75880 valid markers: 28/28\n",
            "Frame 75890 valid markers: 28/28\n",
            "Frame 75900 valid markers: 28/28\n",
            "Frame 75910 valid markers: 28/28\n",
            "Frame 75920 valid markers: 28/28\n",
            "Frame 75930 valid markers: 28/28\n",
            "Frame 75940 valid markers: 28/28\n",
            "Frame 75950 valid markers: 28/28\n",
            "Frame 75960 valid markers: 28/28\n",
            "Frame 75970 valid markers: 28/28\n",
            "Frame 75980 valid markers: 28/28\n",
            "Frame 75990 valid markers: 28/28\n",
            "Frame 76000 valid markers: 28/28\n",
            "Frame 76010 valid markers: 28/28\n",
            "Frame 76020 valid markers: 28/28\n",
            "Frame 76030 valid markers: 28/28\n",
            "Frame 76040 valid markers: 28/28\n",
            "Frame 76050 valid markers: 28/28\n",
            "Frame 76060 valid markers: 28/28\n",
            "Frame 76070 valid markers: 28/28\n",
            "Frame 76080 valid markers: 28/28\n",
            "Frame 76090 valid markers: 28/28\n",
            "Frame 76100 valid markers: 28/28\n",
            "Frame 76110 valid markers: 28/28\n",
            "Frame 76120 valid markers: 28/28\n",
            "Frame 76130 valid markers: 28/28\n",
            "Frame 76140 valid markers: 28/28\n",
            "Frame 76150 valid markers: 28/28\n",
            "Frame 76160 valid markers: 28/28\n",
            "Frame 76170 valid markers: 28/28\n",
            "Frame 76180 valid markers: 28/28\n",
            "Frame 76190 valid markers: 28/28\n",
            "Frame 76200 valid markers: 28/28\n",
            "Frame 76210 valid markers: 28/28\n",
            "Frame 76220 valid markers: 28/28\n",
            "Frame 76230 valid markers: 28/28\n",
            "Frame 76240 valid markers: 28/28\n",
            "Frame 76250 valid markers: 28/28\n",
            "Frame 76260 valid markers: 28/28\n",
            "Frame 76270 valid markers: 28/28\n",
            "Frame 76280 valid markers: 28/28\n",
            "Frame 76290 valid markers: 28/28\n",
            "Frame 76300 valid markers: 28/28\n",
            "Frame 76310 valid markers: 28/28\n",
            "Frame 76320 valid markers: 28/28\n",
            "Frame 76330 valid markers: 28/28\n",
            "Frame 76340 valid markers: 28/28\n",
            "Frame 76350 valid markers: 28/28\n",
            "Frame 76360 valid markers: 28/28\n",
            "Frame 76370 valid markers: 28/28\n",
            "Frame 76380 valid markers: 28/28\n",
            "Frame 76390 valid markers: 28/28\n",
            "Frame 76400 valid markers: 28/28\n",
            "Frame 76410 valid markers: 28/28\n",
            "Frame 76420 valid markers: 28/28\n",
            "Frame 76430 valid markers: 28/28\n",
            "Frame 76440 valid markers: 28/28\n",
            "Frame 76450 valid markers: 28/28\n",
            "Frame 76460 valid markers: 28/28\n",
            "Frame 76470 valid markers: 28/28\n",
            "Frame 76480 valid markers: 28/28\n",
            "Frame 76490 valid markers: 28/28\n",
            "Frame 76500 valid markers: 28/28\n",
            "Frame 76510 valid markers: 28/28\n",
            "Frame 76520 valid markers: 28/28\n",
            "Frame 76530 valid markers: 28/28\n",
            "Frame 76540 valid markers: 28/28\n",
            "Frame 76550 valid markers: 28/28\n",
            "Frame 76560 valid markers: 28/28\n",
            "Frame 76570 valid markers: 28/28\n",
            "Frame 76580 valid markers: 28/28\n",
            "Frame 76590 valid markers: 28/28\n",
            "Frame 76600 valid markers: 28/28\n",
            "Frame 76610 valid markers: 28/28\n",
            "Frame 76620 valid markers: 28/28\n",
            "Frame 76630 valid markers: 28/28\n",
            "Frame 76640 valid markers: 28/28\n",
            "Frame 76650 valid markers: 28/28\n",
            "Frame 76660 valid markers: 28/28\n",
            "Frame 76670 valid markers: 28/28\n",
            "Frame 76680 valid markers: 28/28\n",
            "Frame 76690 valid markers: 28/28\n",
            "Frame 76700 valid markers: 28/28\n",
            "Frame 76710 valid markers: 28/28\n",
            "Frame 76720 valid markers: 28/28\n",
            "Frame 76730 valid markers: 28/28\n",
            "Frame 76740 valid markers: 28/28\n",
            "Frame 76750 valid markers: 28/28\n",
            "Frame 76760 valid markers: 28/28\n",
            "Frame 76770 valid markers: 28/28\n",
            "Frame 76780 valid markers: 28/28\n",
            "Frame 76790 valid markers: 28/28\n",
            "Frame 76800 valid markers: 28/28\n",
            "Frame 76810 valid markers: 28/28\n",
            "Frame 76820 valid markers: 28/28\n",
            "Frame 76830 valid markers: 28/28\n",
            "Frame 76840 valid markers: 28/28\n",
            "Frame 76850 valid markers: 28/28\n",
            "Frame 76860 valid markers: 28/28\n",
            "Frame 76870 valid markers: 28/28\n",
            "Frame 76880 valid markers: 28/28\n",
            "Frame 76890 valid markers: 28/28\n",
            "Frame 76900 valid markers: 28/28\n",
            "Frame 76910 valid markers: 28/28\n",
            "Frame 76920 valid markers: 28/28\n",
            "Frame 76930 valid markers: 28/28\n",
            "Frame 76940 valid markers: 28/28\n",
            "Frame 76950 valid markers: 28/28\n",
            "Frame 76960 valid markers: 28/28\n",
            "Frame 76970 valid markers: 28/28\n",
            "Frame 76980 valid markers: 28/28\n",
            "Frame 76990 valid markers: 28/28\n",
            "Frame 77000 valid markers: 28/28\n",
            "Frame 77010 valid markers: 28/28\n",
            "Frame 77020 valid markers: 28/28\n",
            "Frame 77030 valid markers: 28/28\n",
            "Frame 77040 valid markers: 28/28\n",
            "Frame 77050 valid markers: 28/28\n",
            "Frame 77060 valid markers: 28/28\n",
            "Frame 77070 valid markers: 28/28\n",
            "Frame 77080 valid markers: 28/28\n",
            "Frame 77090 valid markers: 28/28\n",
            "Frame 77100 valid markers: 28/28\n",
            "Frame 77110 valid markers: 28/28\n",
            "Frame 77120 valid markers: 28/28\n",
            "Frame 77130 valid markers: 28/28\n",
            "Frame 77140 valid markers: 28/28\n",
            "Frame 77150 valid markers: 28/28\n",
            "Frame 77160 valid markers: 28/28\n",
            "Frame 77170 valid markers: 28/28\n",
            "Frame 77180 valid markers: 28/28\n",
            "Frame 77190 valid markers: 28/28\n",
            "Frame 77200 valid markers: 28/28\n",
            "Frame 77210 valid markers: 28/28\n",
            "Frame 77220 valid markers: 28/28\n",
            "Frame 77230 valid markers: 28/28\n",
            "Frame 77240 valid markers: 28/28\n",
            "Frame 77250 valid markers: 28/28\n",
            "Frame 77260 valid markers: 28/28\n",
            "Frame 77270 valid markers: 28/28\n",
            "Frame 77280 valid markers: 28/28\n",
            "Frame 77290 valid markers: 28/28\n",
            "Frame 77300 valid markers: 28/28\n",
            "Frame 77310 valid markers: 28/28\n",
            "Frame 77320 valid markers: 28/28\n",
            "Frame 77330 valid markers: 28/28\n",
            "Frame 77340 valid markers: 28/28\n",
            "Frame 77350 valid markers: 28/28\n",
            "Frame 77360 valid markers: 28/28\n",
            "Frame 77370 valid markers: 28/28\n",
            "Frame 77380 valid markers: 28/28\n",
            "Frame 77390 valid markers: 28/28\n",
            "Frame 77400 valid markers: 28/28\n",
            "Frame 77410 valid markers: 28/28\n",
            "Frame 77420 valid markers: 28/28\n",
            "Frame 77430 valid markers: 28/28\n",
            "Frame 77440 valid markers: 28/28\n",
            "Frame 77450 valid markers: 28/28\n",
            "Frame 77460 valid markers: 28/28\n",
            "Frame 77470 valid markers: 28/28\n",
            "Frame 77480 valid markers: 28/28\n",
            "Frame 77490 valid markers: 28/28\n",
            "Frame 77500 valid markers: 28/28\n",
            "Frame 77510 valid markers: 28/28\n",
            "Frame 77520 valid markers: 28/28\n",
            "Frame 77530 valid markers: 28/28\n",
            "Frame 77540 valid markers: 28/28\n",
            "Frame 77550 valid markers: 28/28\n",
            "Frame 77560 valid markers: 28/28\n",
            "Frame 77570 valid markers: 28/28\n",
            "Frame 77580 valid markers: 28/28\n",
            "Frame 77590 valid markers: 28/28\n",
            "Frame 77600 valid markers: 28/28\n",
            "Frame 77610 valid markers: 28/28\n",
            "Frame 77620 valid markers: 28/28\n",
            "Frame 77630 valid markers: 28/28\n",
            "Frame 77640 valid markers: 28/28\n",
            "Frame 77650 valid markers: 28/28\n",
            "Frame 77660 valid markers: 28/28\n",
            "Frame 77670 valid markers: 28/28\n",
            "Frame 77680 valid markers: 28/28\n",
            "Frame 77690 valid markers: 28/28\n",
            "Frame 77700 valid markers: 28/28\n",
            "Frame 77710 valid markers: 28/28\n",
            "Frame 77720 valid markers: 28/28\n",
            "Frame 77730 valid markers: 28/28\n",
            "Frame 77740 valid markers: 28/28\n",
            "Frame 77750 valid markers: 28/28\n",
            "Frame 77760 valid markers: 28/28\n",
            "Frame 77770 valid markers: 28/28\n",
            "Frame 77780 valid markers: 28/28\n",
            "Frame 77790 valid markers: 28/28\n",
            "Frame 77800 valid markers: 28/28\n",
            "Frame 77810 valid markers: 28/28\n",
            "Frame 77820 valid markers: 28/28\n",
            "Frame 77830 valid markers: 28/28\n",
            "Frame 77840 valid markers: 28/28\n",
            "Frame 77850 valid markers: 28/28\n",
            "Frame 77860 valid markers: 28/28\n",
            "Frame 77870 valid markers: 28/28\n",
            "Frame 77880 valid markers: 28/28\n",
            "Frame 77890 valid markers: 28/28\n",
            "Frame 77900 valid markers: 28/28\n",
            "Frame 77910 valid markers: 28/28\n",
            "Frame 77920 valid markers: 28/28\n",
            "Frame 77930 valid markers: 28/28\n",
            "Frame 77940 valid markers: 28/28\n",
            "Frame 77950 valid markers: 28/28\n",
            "Frame 77960 valid markers: 28/28\n",
            "Frame 77970 valid markers: 28/28\n",
            "Frame 77980 valid markers: 28/28\n",
            "Frame 77990 valid markers: 28/28\n",
            "Saved frame 240/240\n",
            "Converting frames to video...\n"
          ]
        },
        {
          "name": "stderr",
          "output_type": "stream",
          "text": [
            "ffmpeg version N-121749-g203c6a93d7 Copyright (c) 2000-2025 the FFmpeg developers\n",
            "  built with gcc 8 (GCC)\n",
            "  configuration: --prefix=/itf-fi-ml/home/sagardu/ffmpeg_build --pkg-config-flags=--static --extra-cflags=-I/itf-fi-ml/home/sagardu/ffmpeg_build/include --extra-ldflags=-L/itf-fi-ml/home/sagardu/ffmpeg_build/lib --extra-libs='-lpthread -lm' --bindir=/itf-fi-ml/home/sagardu/bin --enable-gpl --enable-libx264 --enable-shared\n",
            "  libavutil      60. 17.100 / 60. 17.100\n",
            "  libavcodec     62. 19.100 / 62. 19.100\n",
            "  libavformat    62.  6.101 / 62.  6.101\n",
            "  libavdevice    62.  2.100 / 62.  2.100\n",
            "  libavfilter    11.  9.100 / 11.  9.100\n",
            "  libswscale      9.  3.100 /  9.  3.100\n",
            "  libswresample   6.  2.100 /  6.  2.100\n",
            "Input #0, image2, from 'temp_frames_1780256543190958694/frame_%06d.png':\n",
            "  Duration: 00:00:10.00, start: 0.000000, bitrate: N/A\n",
            "  Stream #0:0: Video: png, rgb24(pc, gbr/unknown/unknown), 1280x720, 24 fps, 24 tbr, 24 tbn\n",
            "Stream mapping:\n",
            "  Stream #0:0 -> #0:0 (png (native) -> h264 (libx264))\n",
            "Press [q] to stop, [?] for help\n",
            "[libx264 @ 0x17dc500] using cpu capabilities: MMX2 SSE2Fast SSSE3 SSE4.2 AVX FMA3 BMI2 AVX2 AVX512\n",
            "[libx264 @ 0x17dc500] profile High, level 3.1, 4:2:0, 8-bit\n",
            "[libx264 @ 0x17dc500] 264 - core 165 - H.264/MPEG-4 AVC codec - Copyleft 2003-2025 - http://www.videolan.org/x264.html - options: cabac=1 ref=3 deblock=1:0:0 analyse=0x3:0x113 me=hex subme=7 psy=1 psy_rd=1.00:0.00 mixed_ref=1 me_range=16 chroma_me=1 trellis=1 8x8dct=1 cqm=0 deadzone=21,11 fast_pskip=1 chroma_qp_offset=-2 threads=22 lookahead_threads=3 sliced_threads=0 nr=0 decimate=1 interlaced=0 bluray_compat=0 constrained_intra=0 bframes=3 b_pyramid=2 b_adapt=1 b_bias=0 direct=1 weightb=1 open_gop=0 weightp=2 keyint=250 keyint_min=24 scenecut=40 intra_refresh=0 rc_lookahead=40 rc=crf mbtree=1 crf=23.0 qcomp=0.60 qpmin=0 qpmax=69 qpstep=4 ip_ratio=1.40 aq=1:1.00\n",
            "Output #0, mp4, to 'testing_output/BKO_E1_D1_03_Wasulunka_T/left_view/left_view_315.0_325.0.mp4':\n",
            "  Metadata:\n",
            "    encoder         : Lavf62.6.101\n",
            "  Stream #0:0: Video: h264 (avc1 / 0x31637661), yuv420p(tv, progressive), 1280x720, q=2-31, 24 fps, 12288 tbn\n",
            "    Metadata:\n",
            "      encoder         : Lavc62.19.100 libx264\n",
            "    Side data:\n",
            "      CPB properties: bitrate max/min/avg: 0/0/0 buffer size: 0 vbv_delay: N/A\n",
            "[out#0/mp4 @ 0x17d7a00] video:512KiB audio:0KiB subtitle:0KiB other streams:0KiB global headers:0KiB muxing overhead: 0.652964%\n",
            "frame=  240 fps=228 q=-1.0 Lsize=     515KiB time=00:00:09.91 bitrate= 425.7kbits/s speed=9.41x elapsed=0:00:01.05    \n",
            "[libx264 @ 0x17dc500] frame I:2     Avg QP:21.43  size:  3875\n",
            "[libx264 @ 0x17dc500] frame P:106   Avg QP:28.01  size:  2610\n",
            "[libx264 @ 0x17dc500] frame B:132   Avg QP:30.38  size:  1812\n",
            "[libx264 @ 0x17dc500] consecutive B-frames: 15.4% 23.3% 31.2% 30.0%\n",
            "[libx264 @ 0x17dc500] mb I  I16..4: 29.8% 67.1%  3.1%\n",
            "[libx264 @ 0x17dc500] mb P  I16..4:  0.1%  1.5%  1.3%  P16..4:  0.8%  0.9%  0.6%  0.0%  0.0%    skip:94.7%\n",
            "[libx264 @ 0x17dc500] mb B  I16..4:  0.0%  0.2%  0.4%  B16..8:  2.8%  1.4%  0.7%  direct: 0.1%  skip:94.4%  L0:52.8% L1:41.3% BI: 5.9%\n",
            "[libx264 @ 0x17dc500] 8x8 transform intra:53.7% inter:12.3%\n",
            "[libx264 @ 0x17dc500] coded y,uvDC,uvAC intra: 19.9% 6.9% 6.7% inter: 0.9% 0.1% 0.1%\n",
            "[libx264 @ 0x17dc500] i16 v,h,dc,p: 89%  3%  8%  0%\n",
            "[libx264 @ 0x17dc500] i8 v,h,dc,ddl,ddr,vr,hd,vl,hu: 33%  6% 60%  0%  0%  0%  0%  0%  0%\n",
            "[libx264 @ 0x17dc500] i4 v,h,dc,ddl,ddr,vr,hd,vl,hu: 26% 14% 32%  5%  5%  7%  3%  6%  2%\n",
            "[libx264 @ 0x17dc500] i8c dc,h,v,p: 97%  1%  1%  0%\n",
            "[libx264 @ 0x17dc500] Weighted P-Frames: Y:0.0% UV:0.0%\n",
            "[libx264 @ 0x17dc500] ref P L0: 59.9%  4.8% 21.2% 14.0%\n",
            "[libx264 @ 0x17dc500] ref B L0: 76.6% 18.7%  4.7%\n",
            "[libx264 @ 0x17dc500] ref B L1: 96.9%  3.1%\n",
            "[libx264 @ 0x17dc500] kb/s:418.84\n"
          ]
        },
        {
          "name": "stdout",
          "output_type": "stream",
          "text": [
            "Video generation complete! Saved to testing_output/BKO_E1_D1_03_Wasulunka_T/left_view/left_view_315.0_325.0.mp4\n",
            "\n",
            "Generating right view -> testing_output/BKO_E1_D1_03_Wasulunka_T/right_view/right_view_315.0_325.0.mp4\n",
            "Building root-centered worldpos (XZ hips, Y fixed): bvh_to_csv_centered/BKO_E1_D1_03_Wasulunka_T_worldpos_root_centered.csv\n"
          ]
        },
        {
          "name": "stderr",
          "output_type": "stream",
          "text": [
            "Exception ignored in: <function BasePlotter.__del__ at 0x7f3bfe12f420>\n",
            "Traceback (most recent call last):\n",
            "  File \"/itf-fi-ml/home/sagardu/miniconda3/lib/python3.12/site-packages/pyvista/plotting/plotter.py\", line 6585, in __del__\n",
            "    if self._initialized and not self._closed:\n",
            "       ^^^^^^^^^^^^^^^^^\n",
            "AttributeError: 'Plotter' object has no attribute '_initialized'\n",
            "Exception ignored in: <function BasePlotter.__del__ at 0x7f3bfe12f420>\n",
            "Traceback (most recent call last):\n",
            "  File \"/itf-fi-ml/home/sagardu/miniconda3/lib/python3.12/site-packages/pyvista/plotting/plotter.py\", line 6585, in __del__\n",
            "    if self._initialized and not self._closed:\n",
            "       ^^^^^^^^^^^^^^^^^\n",
            "AttributeError: 'Plotter' object has no attribute '_initialized'\n"
          ]
        },
        {
          "name": "stdout",
          "output_type": "stream",
          "text": [
            "Frame 75600 valid markers: 28/28\n",
            "Frame 75600 valid markers: 28/28\n",
            "Frame 75610 valid markers: 28/28\n",
            "Frame 75620 valid markers: 28/28\n",
            "Frame 75630 valid markers: 28/28\n",
            "Frame 75640 valid markers: 28/28\n",
            "Frame 75650 valid markers: 28/28\n",
            "Frame 75660 valid markers: 28/28\n",
            "Frame 75670 valid markers: 28/28\n",
            "Frame 75680 valid markers: 28/28\n",
            "Frame 75690 valid markers: 28/28\n",
            "Frame 75700 valid markers: 28/28\n",
            "Frame 75710 valid markers: 28/28\n",
            "Frame 75720 valid markers: 28/28\n",
            "Frame 75730 valid markers: 28/28\n",
            "Frame 75740 valid markers: 28/28\n",
            "Frame 75750 valid markers: 28/28\n",
            "Frame 75760 valid markers: 28/28\n",
            "Frame 75770 valid markers: 28/28\n",
            "Frame 75780 valid markers: 28/28\n",
            "Frame 75790 valid markers: 28/28\n",
            "Frame 75800 valid markers: 28/28\n",
            "Frame 75810 valid markers: 28/28\n",
            "Frame 75820 valid markers: 28/28\n",
            "Frame 75830 valid markers: 28/28\n",
            "Frame 75840 valid markers: 28/28\n",
            "Frame 75850 valid markers: 28/28\n",
            "Frame 75860 valid markers: 28/28\n",
            "Frame 75870 valid markers: 28/28\n",
            "Frame 75880 valid markers: 28/28\n",
            "Frame 75890 valid markers: 28/28\n",
            "Frame 75900 valid markers: 28/28\n",
            "Frame 75910 valid markers: 28/28\n",
            "Frame 75920 valid markers: 28/28\n",
            "Frame 75930 valid markers: 28/28\n",
            "Frame 75940 valid markers: 28/28\n",
            "Frame 75950 valid markers: 28/28\n",
            "Frame 75960 valid markers: 28/28\n",
            "Frame 75970 valid markers: 28/28\n",
            "Frame 75980 valid markers: 28/28\n",
            "Frame 75990 valid markers: 28/28\n",
            "Frame 76000 valid markers: 28/28\n",
            "Frame 76010 valid markers: 28/28\n",
            "Frame 76020 valid markers: 28/28\n",
            "Frame 76030 valid markers: 28/28\n",
            "Frame 76040 valid markers: 28/28\n",
            "Frame 76050 valid markers: 28/28\n",
            "Frame 76060 valid markers: 28/28\n",
            "Frame 76070 valid markers: 28/28\n",
            "Frame 76080 valid markers: 28/28\n",
            "Frame 76090 valid markers: 28/28\n",
            "Frame 76100 valid markers: 28/28\n",
            "Frame 76110 valid markers: 28/28\n",
            "Frame 76120 valid markers: 28/28\n",
            "Frame 76130 valid markers: 28/28\n",
            "Frame 76140 valid markers: 28/28\n",
            "Frame 76150 valid markers: 28/28\n",
            "Frame 76160 valid markers: 28/28\n",
            "Frame 76170 valid markers: 28/28\n",
            "Frame 76180 valid markers: 28/28\n",
            "Frame 76190 valid markers: 28/28\n",
            "Frame 76200 valid markers: 28/28\n",
            "Frame 76210 valid markers: 28/28\n",
            "Frame 76220 valid markers: 28/28\n",
            "Frame 76230 valid markers: 28/28\n",
            "Frame 76240 valid markers: 28/28\n",
            "Frame 76250 valid markers: 28/28\n",
            "Frame 76260 valid markers: 28/28\n",
            "Frame 76270 valid markers: 28/28\n",
            "Frame 76280 valid markers: 28/28\n",
            "Frame 76290 valid markers: 28/28\n",
            "Frame 76300 valid markers: 28/28\n",
            "Frame 76310 valid markers: 28/28\n",
            "Frame 76320 valid markers: 28/28\n",
            "Frame 76330 valid markers: 28/28\n",
            "Frame 76340 valid markers: 28/28\n",
            "Frame 76350 valid markers: 28/28\n",
            "Frame 76360 valid markers: 28/28\n",
            "Frame 76370 valid markers: 28/28\n",
            "Frame 76380 valid markers: 28/28\n",
            "Frame 76390 valid markers: 28/28\n",
            "Frame 76400 valid markers: 28/28\n",
            "Frame 76410 valid markers: 28/28\n",
            "Frame 76420 valid markers: 28/28\n",
            "Frame 76430 valid markers: 28/28\n",
            "Frame 76440 valid markers: 28/28\n",
            "Frame 76450 valid markers: 28/28\n",
            "Frame 76460 valid markers: 28/28\n",
            "Frame 76470 valid markers: 28/28\n",
            "Frame 76480 valid markers: 28/28\n",
            "Frame 76490 valid markers: 28/28\n",
            "Frame 76500 valid markers: 28/28\n",
            "Frame 76510 valid markers: 28/28\n",
            "Frame 76520 valid markers: 28/28\n",
            "Frame 76530 valid markers: 28/28\n",
            "Frame 76540 valid markers: 28/28\n",
            "Frame 76550 valid markers: 28/28\n",
            "Frame 76560 valid markers: 28/28\n",
            "Frame 76570 valid markers: 28/28\n",
            "Frame 76580 valid markers: 28/28\n",
            "Frame 76590 valid markers: 28/28\n",
            "Frame 76600 valid markers: 28/28\n",
            "Frame 76610 valid markers: 28/28\n",
            "Frame 76620 valid markers: 28/28\n",
            "Frame 76630 valid markers: 28/28\n",
            "Frame 76640 valid markers: 28/28\n",
            "Frame 76650 valid markers: 28/28\n",
            "Frame 76660 valid markers: 28/28\n",
            "Frame 76670 valid markers: 28/28\n",
            "Frame 76680 valid markers: 28/28\n",
            "Frame 76690 valid markers: 28/28\n",
            "Frame 76700 valid markers: 28/28\n",
            "Frame 76710 valid markers: 28/28\n",
            "Frame 76720 valid markers: 28/28\n",
            "Frame 76730 valid markers: 28/28\n",
            "Frame 76740 valid markers: 28/28\n",
            "Frame 76750 valid markers: 28/28\n",
            "Frame 76760 valid markers: 28/28\n",
            "Frame 76770 valid markers: 28/28\n",
            "Frame 76780 valid markers: 28/28\n",
            "Frame 76790 valid markers: 28/28\n",
            "Frame 76800 valid markers: 28/28\n",
            "Frame 76810 valid markers: 28/28\n",
            "Frame 76820 valid markers: 28/28\n",
            "Frame 76830 valid markers: 28/28\n",
            "Frame 76840 valid markers: 28/28\n",
            "Frame 76850 valid markers: 28/28\n",
            "Frame 76860 valid markers: 28/28\n",
            "Frame 76870 valid markers: 28/28\n",
            "Frame 76880 valid markers: 28/28\n",
            "Frame 76890 valid markers: 28/28\n",
            "Frame 76900 valid markers: 28/28\n",
            "Frame 76910 valid markers: 28/28\n",
            "Frame 76920 valid markers: 28/28\n",
            "Frame 76930 valid markers: 28/28\n",
            "Frame 76940 valid markers: 28/28\n",
            "Frame 76950 valid markers: 28/28\n",
            "Frame 76960 valid markers: 28/28\n",
            "Frame 76970 valid markers: 28/28\n",
            "Frame 76980 valid markers: 28/28\n",
            "Frame 76990 valid markers: 28/28\n",
            "Frame 77000 valid markers: 28/28\n",
            "Frame 77010 valid markers: 28/28\n",
            "Frame 77020 valid markers: 28/28\n",
            "Frame 77030 valid markers: 28/28\n",
            "Frame 77040 valid markers: 28/28\n",
            "Frame 77050 valid markers: 28/28\n",
            "Frame 77060 valid markers: 28/28\n",
            "Frame 77070 valid markers: 28/28\n",
            "Frame 77080 valid markers: 28/28\n",
            "Frame 77090 valid markers: 28/28\n",
            "Frame 77100 valid markers: 28/28\n",
            "Frame 77110 valid markers: 28/28\n",
            "Frame 77120 valid markers: 28/28\n",
            "Frame 77130 valid markers: 28/28\n",
            "Frame 77140 valid markers: 28/28\n",
            "Frame 77150 valid markers: 28/28\n",
            "Frame 77160 valid markers: 28/28\n",
            "Frame 77170 valid markers: 28/28\n",
            "Frame 77180 valid markers: 28/28\n",
            "Frame 77190 valid markers: 28/28\n",
            "Frame 77200 valid markers: 28/28\n",
            "Frame 77210 valid markers: 28/28\n",
            "Frame 77220 valid markers: 28/28\n",
            "Frame 77230 valid markers: 28/28\n",
            "Frame 77240 valid markers: 28/28\n",
            "Frame 77250 valid markers: 28/28\n",
            "Frame 77260 valid markers: 28/28\n",
            "Frame 77270 valid markers: 28/28\n",
            "Frame 77280 valid markers: 28/28\n",
            "Frame 77290 valid markers: 28/28\n",
            "Frame 77300 valid markers: 28/28\n",
            "Frame 77310 valid markers: 28/28\n",
            "Frame 77320 valid markers: 28/28\n",
            "Frame 77330 valid markers: 28/28\n",
            "Frame 77340 valid markers: 28/28\n",
            "Frame 77350 valid markers: 28/28\n",
            "Frame 77360 valid markers: 28/28\n",
            "Frame 77370 valid markers: 28/28\n",
            "Frame 77380 valid markers: 28/28\n",
            "Frame 77390 valid markers: 28/28\n",
            "Frame 77400 valid markers: 28/28\n",
            "Frame 77410 valid markers: 28/28\n",
            "Frame 77420 valid markers: 28/28\n",
            "Frame 77430 valid markers: 28/28\n",
            "Frame 77440 valid markers: 28/28\n",
            "Frame 77450 valid markers: 28/28\n",
            "Frame 77460 valid markers: 28/28\n",
            "Frame 77470 valid markers: 28/28\n",
            "Frame 77480 valid markers: 28/28\n",
            "Frame 77490 valid markers: 28/28\n",
            "Frame 77500 valid markers: 28/28\n",
            "Frame 77510 valid markers: 28/28\n",
            "Frame 77520 valid markers: 28/28\n",
            "Frame 77530 valid markers: 28/28\n",
            "Frame 77540 valid markers: 28/28\n",
            "Frame 77550 valid markers: 28/28\n",
            "Frame 77560 valid markers: 28/28\n",
            "Frame 77570 valid markers: 28/28\n",
            "Frame 77580 valid markers: 28/28\n",
            "Frame 77590 valid markers: 28/28\n",
            "Frame 77600 valid markers: 28/28\n",
            "Frame 77610 valid markers: 28/28\n",
            "Frame 77620 valid markers: 28/28\n",
            "Frame 77630 valid markers: 28/28\n",
            "Frame 77640 valid markers: 28/28\n",
            "Frame 77650 valid markers: 28/28\n",
            "Frame 77660 valid markers: 28/28\n",
            "Frame 77670 valid markers: 28/28\n",
            "Frame 77680 valid markers: 28/28\n",
            "Frame 77690 valid markers: 28/28\n",
            "Frame 77700 valid markers: 28/28\n",
            "Frame 77710 valid markers: 28/28\n",
            "Frame 77720 valid markers: 28/28\n",
            "Frame 77730 valid markers: 28/28\n",
            "Frame 77740 valid markers: 28/28\n",
            "Frame 77750 valid markers: 28/28\n",
            "Frame 77760 valid markers: 28/28\n",
            "Frame 77770 valid markers: 28/28\n",
            "Frame 77780 valid markers: 28/28\n",
            "Frame 77790 valid markers: 28/28\n",
            "Frame 77800 valid markers: 28/28\n",
            "Frame 77810 valid markers: 28/28\n",
            "Frame 77820 valid markers: 28/28\n",
            "Frame 77830 valid markers: 28/28\n",
            "Frame 77840 valid markers: 28/28\n",
            "Frame 77850 valid markers: 28/28\n",
            "Frame 77860 valid markers: 28/28\n",
            "Frame 77870 valid markers: 28/28\n",
            "Frame 77880 valid markers: 28/28\n",
            "Frame 77890 valid markers: 28/28\n",
            "Frame 77900 valid markers: 28/28\n",
            "Frame 77910 valid markers: 28/28\n",
            "Frame 77920 valid markers: 28/28\n",
            "Frame 77930 valid markers: 28/28\n",
            "Frame 77940 valid markers: 28/28\n",
            "Frame 77950 valid markers: 28/28\n",
            "Frame 77960 valid markers: 28/28\n",
            "Frame 77970 valid markers: 28/28\n",
            "Frame 77980 valid markers: 28/28\n",
            "Frame 77990 valid markers: 28/28\n",
            "Saved frame 240/240\n",
            "Converting frames to video...\n"
          ]
        },
        {
          "name": "stderr",
          "output_type": "stream",
          "text": [
            "ffmpeg version N-121749-g203c6a93d7 Copyright (c) 2000-2025 the FFmpeg developers\n",
            "  built with gcc 8 (GCC)\n",
            "  configuration: --prefix=/itf-fi-ml/home/sagardu/ffmpeg_build --pkg-config-flags=--static --extra-cflags=-I/itf-fi-ml/home/sagardu/ffmpeg_build/include --extra-ldflags=-L/itf-fi-ml/home/sagardu/ffmpeg_build/lib --extra-libs='-lpthread -lm' --bindir=/itf-fi-ml/home/sagardu/bin --enable-gpl --enable-libx264 --enable-shared\n",
            "  libavutil      60. 17.100 / 60. 17.100\n",
            "  libavcodec     62. 19.100 / 62. 19.100\n",
            "  libavformat    62.  6.101 / 62.  6.101\n",
            "  libavdevice    62.  2.100 / 62.  2.100\n",
            "  libavfilter    11.  9.100 / 11.  9.100\n",
            "  libswscale      9.  3.100 /  9.  3.100\n",
            "  libswresample   6.  2.100 /  6.  2.100\n",
            "Input #0, image2, from 'temp_frames_1780256580121703771/frame_%06d.png':\n",
            "  Duration: 00:00:10.00, start: 0.000000, bitrate: N/A\n",
            "  Stream #0:0: Video: png, rgb24(pc, gbr/unknown/unknown), 1280x720, 24 fps, 24 tbr, 24 tbn\n",
            "Stream mapping:\n",
            "  Stream #0:0 -> #0:0 (png (native) -> h264 (libx264))\n",
            "Press [q] to stop, [?] for help\n",
            "[libx264 @ 0xf56240] using cpu capabilities: MMX2 SSE2Fast SSSE3 SSE4.2 AVX FMA3 BMI2 AVX2 AVX512\n",
            "[libx264 @ 0xf56240] profile High, level 3.1, 4:2:0, 8-bit\n",
            "[libx264 @ 0xf56240] 264 - core 165 - H.264/MPEG-4 AVC codec - Copyleft 2003-2025 - http://www.videolan.org/x264.html - options: cabac=1 ref=3 deblock=1:0:0 analyse=0x3:0x113 me=hex subme=7 psy=1 psy_rd=1.00:0.00 mixed_ref=1 me_range=16 chroma_me=1 trellis=1 8x8dct=1 cqm=0 deadzone=21,11 fast_pskip=1 chroma_qp_offset=-2 threads=22 lookahead_threads=3 sliced_threads=0 nr=0 decimate=1 interlaced=0 bluray_compat=0 constrained_intra=0 bframes=3 b_pyramid=2 b_adapt=1 b_bias=0 direct=1 weightb=1 open_gop=0 weightp=2 keyint=250 keyint_min=24 scenecut=40 intra_refresh=0 rc_lookahead=40 rc=crf mbtree=1 crf=23.0 qcomp=0.60 qpmin=0 qpmax=69 qpstep=4 ip_ratio=1.40 aq=1:1.00\n",
            "Output #0, mp4, to 'testing_output/BKO_E1_D1_03_Wasulunka_T/right_view/right_view_315.0_325.0.mp4':\n",
            "  Metadata:\n",
            "    encoder         : Lavf62.6.101\n",
            "  Stream #0:0: Video: h264 (avc1 / 0x31637661), yuv420p(tv, progressive), 1280x720, q=2-31, 24 fps, 12288 tbn\n",
            "    Metadata:\n",
            "      encoder         : Lavc62.19.100 libx264\n",
            "    Side data:\n",
            "      CPB properties: bitrate max/min/avg: 0/0/0 buffer size: 0 vbv_delay: N/A\n",
            "frame=   58 fps=0.0 q=28.0 size=       0KiB time=00:00:02.33 bitrate=   0.2kbits/s speed=4.67x elapsed=0:00:00.50    \r"
          ]
        },
        {
          "name": "stdout",
          "output_type": "stream",
          "text": [
            "Video generation complete! Saved to testing_output/BKO_E1_D1_03_Wasulunka_T/right_view/right_view_315.0_325.0.mp4\n",
            "\n",
            "Generated:\n",
            "  front: testing_output/BKO_E1_D1_03_Wasulunka_T/front_view/front_view_315.0_325.0.mp4\n",
            "  left: testing_output/BKO_E1_D1_03_Wasulunka_T/left_view/left_view_315.0_325.0.mp4\n",
            "  right: testing_output/BKO_E1_D1_03_Wasulunka_T/right_view/right_view_315.0_325.0.mp4\n"
          ]
        },
        {
          "name": "stderr",
          "output_type": "stream",
          "text": [
            "[out#0/mp4 @ 0xf51a00] video:521KiB audio:0KiB subtitle:0KiB other streams:0KiB global headers:0KiB muxing overhead: 0.646244%\n",
            "frame=  240 fps=230 q=-1.0 Lsize=     524KiB time=00:00:09.91 bitrate= 433.1kbits/s speed= 9.5x elapsed=0:00:01.04    \n",
            "[libx264 @ 0xf56240] frame I:2     Avg QP:19.48  size:  4297\n",
            "[libx264 @ 0xf56240] frame P:106   Avg QP:28.48  size:  2625\n",
            "[libx264 @ 0xf56240] frame B:132   Avg QP:30.96  size:  1862\n",
            "[libx264 @ 0xf56240] consecutive B-frames: 17.5% 19.2% 25.0% 38.3%\n",
            "[libx264 @ 0xf56240] mb I  I16..4: 35.7% 60.9%  3.3%\n",
            "[libx264 @ 0xf56240] mb P  I16..4:  0.2%  1.5%  1.2%  P16..4:  0.8%  0.9%  0.7%  0.0%  0.0%    skip:94.7%\n",
            "[libx264 @ 0xf56240] mb B  I16..4:  0.0%  0.1%  0.4%  B16..8:  2.8%  1.4%  0.7%  direct: 0.1%  skip:94.3%  L0:53.2% L1:41.3% BI: 5.5%\n",
            "[libx264 @ 0xf56240] 8x8 transform intra:51.3% inter:12.3%\n",
            "[libx264 @ 0xf56240] coded y,uvDC,uvAC intra: 20.2% 7.4% 7.3% inter: 0.9% 0.1% 0.1%\n",
            "[libx264 @ 0xf56240] i16 v,h,dc,p: 90%  2%  7%  0%\n",
            "[libx264 @ 0xf56240] i8 v,h,dc,ddl,ddr,vr,hd,vl,hu: 33%  5% 61%  1%  0%  0%  0%  0%  0%\n",
            "[libx264 @ 0xf56240] i4 v,h,dc,ddl,ddr,vr,hd,vl,hu: 27% 14% 32%  5%  4%  8%  2%  6%  2%\n",
            "[libx264 @ 0xf56240] i8c dc,h,v,p: 94%  3%  3%  0%\n",
            "[libx264 @ 0xf56240] Weighted P-Frames: Y:0.0% UV:0.0%\n",
            "[libx264 @ 0xf56240] ref P L0: 58.9%  4.7% 21.8% 14.6%\n",
            "[libx264 @ 0xf56240] ref B L0: 75.5% 19.5%  5.0%\n",
            "[libx264 @ 0xf56240] ref B L1: 96.0%  4.0%\n",
            "[libx264 @ 0xf56240] kb/s:426.17\n"
          ]
        }
      ],
      "source": [
        "import os\n",
        "import pickle\n",
        "import numpy as np\n",
        "import pandas as pd\n",
        "import matplotlib.pyplot as plt\n",
        "from scipy.spatial.transform import Rotation\n",
        "\n",
        "from utils_mocap_viz.worldpos_transform_v1 import (\n",
        "    ensure_root_centered_worldpos_csv,\n",
        "    transform_worldpos_to_root_centered,\n",
        "    marker_names_from_columns,\n",
        ")\n",
        "from utils_mocap_viz.worldpos_transform_v1 import root_centered_worldpos_path\n",
        "from utils_mocap_viz.mocap_visualizer_F_view import MocapVisualizerFront\n",
        "from utils_mocap_viz.mocap_visualizer_LS_view import MocapVisualizerLeftSide\n",
        "from utils_mocap_viz.mocap_visualizer_RS_view import MocapVisualizerRightSide\n",
        "\n",
        "\n",
        "with open('data/selected_piece_list.pkl', 'rb') as f:\n",
        "    piece_list = pickle.load(f)\n",
        "\n",
        "c=0\n",
        "for piece in piece_list:\n",
        "    piece = \"BKO_E1_D1_03_Wasulunka\"\n",
        "    c+=1\n",
        "    if c>1:\n",
        "        break\n",
        "    # --- config ---\n",
        "    BASE_NAME = f\"{piece}_T\"\n",
        "    DIR_CSV = \"bvh_to_csv\"\n",
        "    BVH_FILE = os.path.join(\"data\", \"bvh_files\", f\"{BASE_NAME}.bvh\")\n",
        "\n",
        "\n",
        "    SOURCE_CSV = os.path.join(DIR_CSV, f\"{BASE_NAME}_worldpos.csv\")\n",
        "    ROOT_CENTERED_CSV = root_centered_worldpos_path(BASE_NAME, DIR_CSV)\n",
        "\n",
        "    TEST_DIR = \"testing_output\"\n",
        "    os.makedirs(TEST_DIR, exist_ok=True)\n",
        "    OUTPUT_DIR = os.path.join(TEST_DIR, BASE_NAME)\n",
        "\n",
        "    ROOT = \"Hips\"\n",
        "    LEFT_MARKER = \"LeftShoulder\"\n",
        "    RIGHT_MARKER = \"RightShoulder\"\n",
        "    FRONTAL_METHOD = \"frame\"  # \"frame\" | \"mean\" (JYU mc2frontal)\n",
        "\n",
        "    START_TIME = 315.0\n",
        "    END_TIME = 325.0\n",
        "\n",
        "\n",
        "    # ------------------------------\n",
        "\n",
        "    raw_df = pd.read_csv(SOURCE_CSV)\n",
        "    print(f\"Loaded {len(raw_df)} frames from {SOURCE_CSV}\")\n",
        "\n",
        "    ROOT_CENTERED_CSV = ensure_root_centered_worldpos_csv(SOURCE_CSV, force=True)\n",
        "    transformed_df = pd.read_csv(ROOT_CENTERED_CSV)\n",
        "    print(f\"Root-centered CSV -> {ROOT_CENTERED_CSV}\")\n",
        "\n",
        "    # ------------------------------\n",
        "\n",
        "\n",
        "\n",
        "    VIEW_CONFIG = [\n",
        "        (\"front\", MocapVisualizerFront, True),\n",
        "        (\"left\", MocapVisualizerLeftSide, False),\n",
        "        (\"right\", MocapVisualizerRightSide, False),\n",
        "    ]\n",
        "\n",
        "    os.makedirs(OUTPUT_DIR, exist_ok=True)\n",
        "    generated = {}\n",
        "\n",
        "    for view_name, vis_cls, show_info in VIEW_CONFIG:\n",
        "        view_dir = os.path.join(OUTPUT_DIR, f\"{view_name}_view\")\n",
        "        os.makedirs(view_dir, exist_ok=True)\n",
        "        output_file = os.path.join(\n",
        "            view_dir,\n",
        "            f\"{view_name}_view_{START_TIME:.1f}_{END_TIME:.1f}.mp4\",\n",
        "        )\n",
        "        print(f\"\\nGenerating {view_name} view -> {output_file}\")\n",
        "        visualizer = vis_cls(BVH_FILE, debug=True)\n",
        "        visualizer.generate_video(\n",
        "            output_file=output_file,\n",
        "            start_time=START_TIME,\n",
        "            end_time=END_TIME,\n",
        "            output_fps=24,\n",
        "            video_size=(1280, 720),\n",
        "            show_info=show_info,\n",
        "        )\n",
        "        visualizer.plotter.close()\n",
        "        generated[view_name] = output_file\n",
        "\n",
        "    print(\"\\nGenerated:\")\n",
        "    for view_name, path in generated.items():\n",
        "        print(f\"  {view_name}: {path}\")"
      ]
    }
  ],
  "metadata": {
    "kernelspec": {
      "display_name": "base",
      "language": "python",
      "name": "python3"
    },
    "language_info": {
      "codemirror_mode": {
        "name": "ipython",
        "version": 3
      },
      "file_extension": ".py",
      "mimetype": "text/x-python",
      "name": "python",
      "nbconvert_exporter": "python",
      "pygments_lexer": "ipython3",
      "version": "3.12.9"
    }
  },
  "nbformat": 4,
  "nbformat_minor": 5
}
